HIERARCHY
ROOT root
{
	OFFSET	0	13.1	24.9
	CHANNELS 6  Xposition Yposition Zposition Xrotation Yrotation Zrotation
	JOINT spine_1
	{
		OFFSET	0	9.99999	0
		CHANNELS 3  Xrotation Yrotation Zrotation
		JOINT spine_2
		{
			OFFSET	0	112	-10
			CHANNELS 3  Xrotation Yrotation Zrotation
			JOINT spine_3
			{
				OFFSET	0	206.5	19.3
				CHANNELS 3  Xrotation Yrotation Zrotation
				JOINT spine_4
				{
					OFFSET	0	110.4	14.6
					CHANNELS 3  Xrotation Yrotation Zrotation
					JOINT neck_1
					{
						OFFSET	0	71.8	-50.3
						CHANNELS 3  Xrotation Yrotation Zrotation
						JOINT neck_2
						{
							OFFSET	0	86.2	-25.8
							CHANNELS 3  Xrotation Yrotation Zrotation
							JOINT head_ee
							{
								OFFSET	0	179.8	-8.7
								CHANNELS 3  Xrotation Yrotation Zrotation
								End Site
								{
									OFFSET	1	0	0
								}
							}
						}
					}
					JOINT left_clavicle
					{
						OFFSET	-43.2	22.4	-70.8
						CHANNELS 3  Xrotation Yrotation Zrotation
						JOINT left_shoulder
						{
							OFFSET	-93.9	-5.79999	48.7
							CHANNELS 3  Xrotation Yrotation Zrotation
							JOINT left_elbow
							{
								OFFSET	-291.4	-30.8	15.2
								CHANNELS 3  Xrotation Yrotation Zrotation
								JOINT left_lowarm_twist
								{
									OFFSET	-110.7	-3.89999	13.6
									CHANNELS 3  Xrotation Yrotation Zrotation
									JOINT left_hand
									{
										OFFSET	-110.7	-3.89999	13.6
										CHANNELS 3  Xrotation Yrotation Zrotation
										JOINT left_ee
										{
											OFFSET	-80.8	-5.10001	12.1
											CHANNELS 3  Xrotation Yrotation Zrotation
											End Site
											{
												OFFSET	1	0	0
											}
										}
									}
								}
							}
						}
					}
					JOINT right_clavicle
					{
						OFFSET	43.2	22.4	-70.8
						CHANNELS 3  Xrotation Yrotation Zrotation
						JOINT right_shoulder
						{
							OFFSET	93.9	-5.79999	48.7
							CHANNELS 3  Xrotation Yrotation Zrotation
							JOINT right_elbow
							{
								OFFSET	291.4	-30.8	15.2
								CHANNELS 3  Xrotation Yrotation Zrotation
								JOINT right_lowarm_twist
								{
									OFFSET	110.7	-3.89999	13.6
									CHANNELS 3  Xrotation Yrotation Zrotation
									JOINT right_hand
									{
										OFFSET	110.7	-3.89999	13.6
										CHANNELS 3  Xrotation Yrotation Zrotation
										JOINT right_ee
										{
											OFFSET	80.8	-5.10001	12.1
											CHANNELS 3  Xrotation Yrotation Zrotation
											End Site
											{
												OFFSET	1	0	0
											}
										}
									}
								}
							}
						}
					}
				}
			}
		}
	}
	JOINT left_hip
	{
		OFFSET	-82.8	-127.5	0.300001
		CHANNELS 3  Xrotation Yrotation Zrotation
		JOINT left_knee
		{
			OFFSET	-28.2	-396.7	2.2
			CHANNELS 3  Xrotation Yrotation Zrotation
			JOINT left_ankle
			{
				OFFSET	-11.7	-411.3	35.4
				CHANNELS 3  Xrotation Yrotation Zrotation
				JOINT left_toes
				{
					OFFSET	0	-60	-88.6
					CHANNELS 3  Xrotation Yrotation Zrotation
					JOINT left_foot_ee
					{
						OFFSET	-22.5	-16.5	-42.2
						CHANNELS 3  Xrotation Yrotation Zrotation
						End Site
						{
							OFFSET	1	0	0
						}
					}
				}
			}
		}
	}
	JOINT right_hip
	{
		OFFSET	82.8	-127.5	0.300001
		CHANNELS 3  Xrotation Yrotation Zrotation
		JOINT right_knee
		{
			OFFSET	28.2	-396.7	2.2
			CHANNELS 3  Xrotation Yrotation Zrotation
			JOINT right_ankle
			{
				OFFSET	11.7	-411.3	35.4
				CHANNELS 3  Xrotation Yrotation Zrotation
				JOINT right_toes
				{
					OFFSET	0	-60	-88.6
					CHANNELS 3  Xrotation Yrotation Zrotation
					JOINT right_foot_ee
					{
						OFFSET	22.5	-16.5	-42.2
						CHANNELS 3  Xrotation Yrotation Zrotation
						End Site
						{
							OFFSET	1	0	0
						}
					}
				}
			}
		}
	}
}
MOTION
Frames: 13
Frame Time: 0.02
3177.02 653.055 -1669.29 -22.8972521689 26.6647746711 12.6713993715 8.26101 0.150314 0.247948 8.26103 0.134232 0.25701 8.26158 0.116576 0.265486 8.26152 0.157041 0.243743 -11.4551 0.870375 -3.07681 -11.4338 3.65614 -2.73279 -0.0 0.0 -0.0 2.6934 12.0523 5.93911 -34.6721 -8.55621 62.6188 0.343997 -9.67086 0.0291005 -70.4563 -6.60427 5.30612 8.25348 -25.8429 46.3086 -0.0 0.0 -0.0 9.49198 -0.923605 -18.5702 -23.1737 40.2309 -44.2209 1.04095 27.2775 -0.252584 -41.9622 3.16222 -4.198 -8.81591 -8.17454 73.0847 0.0 0.0 0.0 52.9073 -22.4059 3.50348 -10.1639 0.28321 1.53208 37.4559 23.3536 -4.86907 -15.753 0.0 0.0 -0.0 0.0 -0.0 11.0174 -21.8772 -3.0023 -18.6902 -0.308926 -2.83883 36.3178 27.1466 5.36048 29.923 -0.0 -0.0 0.0 0.0 0.0 
3168.3151791 651.935 -1687.91754125 -22.8531958137 25.5745171078 13.942063769 8.31618 0.286535 0.190275 8.31616 0.273847 0.208122 8.31717 0.259393 0.225881 8.31722 0.291811 0.18208 -10.1906 0.45706 -4.41844 -10.1384 3.83648 -4.18967 -0.0 0.0 -0.0 2.59537 11.2855 5.73226 -32.2209 -8.24824 62.7862 0.368346 -10.3411 0.0333313 -69.2538 -6.45083 5.29494 8.66864 -25.3309 50.5974 -0.0 0.0 -0.0 9.18003 -1.13558 -17.9286 -21.4711 38.649 -47.3658 0.958434 25.397 -0.215971 -39.6778 2.91696 -4.03742 -9.04335 -11.0712 71.7855 0.0 0.0 0.0 53.0811 -23.734 2.60319 -13.4917 0.316392 2.04154 40.3645 22.4232 -5.12449 -11.9077 0.0 0.0 -0.0 0.0 -0.0 9.33888 -19.8927 -5.11147 -18.3086 -0.311934 -2.78035 36.4754 25.633 5.29047 32.0247 -0.0 -0.0 0.0 0.0 0.0 
3155.7858197 650.584 -1715.90720913 -22.7887035501 25.0020282957 14.7635423431 8.34741 0.303666 0.0406605 8.34736 0.300463 0.0599013 8.34775 0.295854 0.0796037 8.34787 0.304713 0.0318797 -10.127 -0.479745 -4.73354 -10.0642 2.28991 -4.7328 -0.0 0.0 -0.0 2.35323 13.9176 5.47623 -30.6097 -10.7177 64.2972 0.418064 -11.7006 0.0428364 -68.5823 -6.36524 5.28728 8.80055 -24.58 52.7105 -0.0 0.0 -0.0 8.9266 -1.24208 -17.4136 -20.5355 37.3972 -49.4536 0.903056 24.1009 -0.192786 -37.3815 2.67709 -3.86633 -9.32051 -14.2764 70.2593 0.0 0.0 0.0 52.4103 -24.9127 2.46245 -16.2897 0.321364 2.47075 41.6533 21.0518 -5.20518 -7.64085 0.0 0.0 -0.0 0.0 -0.0 8.33476 -18.3374 -6.49854 -18.0212 -0.313942 -2.73632 36.9275 23.5768 5.22852 33.2181 -0.0 -0.0 0.0 0.0 0.0 
3155.53000613 650.584 -1715.78983617 -22.8460130658 25.2922014766 14.898405569 8.34741 0.303666 0.0406605 8.34736 0.300463 0.0599013 8.34775 0.295854 0.0796037 8.34787 0.304713 0.0318797 -10.127 -0.479745 -4.73354 -10.0642 2.28991 -4.7328 -0.0 0.0 -0.0 2.35323 13.9176 5.47623 -30.6097 -10.7177 64.2972 0.418064 -11.7006 0.0428364 -68.5823 -6.36524 5.28728 8.80055 -24.58 52.7105 -0.0 0.0 -0.0 8.9266 -1.24208 -17.4136 -20.5355 37.3972 -49.4536 0.903056 24.1009 -0.192786 -37.3815 2.67709 -3.86633 -9.32051 -14.2764 70.2593 0.0 0.0 0.0 52.4103 -24.9127 2.46245 -16.2897 0.321364 2.47075 41.6533 21.0518 -5.20518 -7.64085 0.0 0.0 -0.0 0.0 -0.0 8.33476 -18.3374 -6.49854 -18.0212 -0.313942 -2.73632 36.9275 23.5768 5.22852 33.2181 -0.0 -0.0 0.0 0.0 0.0 
3141.33225516 657.554 -1740.08272115 -22.6546197404 26.112804874 15.7715567173 8.26761 -0.00277385 -0.484575 8.26774 0.0280662 -0.483769 8.26728 0.0606164 -0.480777 8.26696 -0.0160732 -0.484316 -9.91497 -0.836577 -3.36418 -9.88293 0.70613 -3.48904 -0.0 0.0 -0.0 1.49324 15.2015 4.17192 -29.6705 -12.5212 64.1751 0.507945 -14.1238 0.0629254 -67.5313 -6.23144 5.27328 8.97055 -25.3742 53.4525 -0.0 0.0 -0.0 8.54859 -1.18595 -16.6574 -21.4848 35.3068 -50.4458 0.850191 22.8387 -0.17173 -35.4121 2.47698 -3.71206 -9.58329 -17.4051 67.9777 0.0 0.0 0.0 52.0318 -25.7275 2.31148 -19.1683 0.304607 2.91207 41.119 20.4155 -5.14083 -3.08514 0.0 0.0 -0.0 0.0 -0.0 8.05242 -16.5551 -7.18221 -20.882 -0.284112 -3.1742 38.394 20.7467 5.23824 36.1872 -0.0 -0.0 0.0 0.0 0.0 
3121.70768446 660.792 -1769.06023178 -21.3128751316 27.08257117 16.1007730433 8.10815 -0.304124 -0.890905 8.10856 -0.246819 -0.908449 8.11172 -0.182536 -0.923514 8.11067 -0.326092 -0.883101 -10.6538 -0.945569 -0.812012 -10.6526 -1.24361 -1.03254 -0.0 0.0 -0.0 1.22001 16.1216 3.81179 -28.2784 -14.0069 64.5123 0.573524 -15.8604 0.0798917 -65.7873 -6.01 5.2446 8.94447 -24.9053 53.7538 -0.0 0.0 -0.0 8.23487 -1.42152 -16.0247 -22.0484 33.7758 -51.7562 0.714946 19.5023 -0.122867 -33.6554 2.30306 -3.56876 -9.58609 -18.0647 66.4661 0.0 0.0 0.0 48.8203 -24.7803 2.64608 -19.7347 0.298701 2.99877 33.6131 16.7789 -4.34169 4.64112 -0.0 -0.0 -0.0 0.0 -0.0 8.21291 -13.7693 -7.4449 -27.7139 -0.124818 -4.20991 38.9401 16.0002 5.10415 40.2307 -0.0 -0.0 0.0 0.0 0.0 
3108.67384812 658.558 -1793.67981479 -19.9266883126 28.5659990471 15.5335018931 7.98688 -0.471319 -1.00307 7.98734 -0.406539 -1.03102 7.99376 -0.331126 -1.05766 7.99254 -0.493999 -0.992097 -11.6173 -1.66954 1.52716 -11.6187 -4.15418 1.01335 -0.0 0.0 -0.0 1.13098 16.5659 3.70928 -27.2024 -15.66 65.4381 0.643531 -17.6817 0.100094 -64.0932 -5.79575 5.21027 8.80427 -24.1124 53.2875 -0.0 0.0 -0.0 8.00803 -1.58863 -15.5702 -22.7882 33.079 -53.1531 0.658971 18.0786 -0.104835 -32.1634 2.15887 -3.44294 -9.68516 -19.5747 64.7325 0.0 0.0 0.0 45.7191 -23.4104 2.3873 -20.3298 0.291572 3.0898 28.3801 13.9723 -3.74569 10.113 -0.0 -0.0 -0.0 0.0 -0.0 9.29492 -12.1282 -7.99663 -32.4946 0.0595398 -4.92021 37.9994 12.6159 4.91448 40.1827 -0.0 -0.0 0.0 0.0 0.0 
3108.59922533 658.558 -1793.63878405 -19.9330726766 28.5983181872 15.5468466208 7.98688 -0.471319 -1.00307 7.98734 -0.406539 -1.03102 7.99376 -0.331126 -1.05766 7.99254 -0.493999 -0.992097 -11.6173 -1.66954 1.52716 -11.6187 -4.15418 1.01335 -0.0 0.0 -0.0 1.13098 16.5659 3.70928 -27.2024 -15.66 65.4381 0.643531 -17.6817 0.100094 -64.0932 -5.79575 5.21027 8.80427 -24.1124 53.2875 -0.0 0.0 -0.0 8.00803 -1.58863 -15.5702 -22.7882 33.079 -53.1531 0.658971 18.0786 -0.104835 -32.1634 2.15887 -3.44294 -9.68516 -19.5747 64.7325 0.0 0.0 0.0 45.7191 -23.4104 2.3873 -20.3298 0.291572 3.0898 28.3801 13.9723 -3.74569 10.113 -0.0 -0.0 -0.0 0.0 -0.0 9.29492 -12.1282 -7.99663 -32.4946 0.0595398 -4.92021 37.9994 12.6159 4.91448 40.1827 -0.0 -0.0 0.0 0.0 0.0 
3104.74944255 656.948 -1809.10538623 -18.4841583175 29.7402131328 15.0721493623 7.53116 -0.459224 -0.890804 7.53152 -0.401612 -0.918218 7.53731 -0.326802 -0.947424 7.53637 -0.472323 -0.883929 -13.4702 -2.72438 3.45372 -13.4731 -7.32888 2.45905 -0.0 0.0 -0.0 2.33628 16.8276 5.60802 -27.1455 -17.0252 64.2028 0.70268 -19.1924 0.118803 -62.7902 -5.63166 5.17954 8.3215 -22.4653 50.3707 -0.0 0.0 -0.0 7.1035 -1.86599 -13.7865 -23.2573 32.252 -54.7477 0.691728 18.9147 -0.115228 -30.143 1.96897 -3.2667 -9.58035 -18.5033 65.3704 0.0 0.0 0.0 43.4885 -22.0399 1.97808 -20.9499 0.283138 3.18457 25.3469 10.5469 -3.3787 13.1213 -0.0 -0.0 -0.0 0.0 -0.0 12.0718 -7.66627 -7.03606 -37.9476 0.341387 -5.70881 36.557 7.59439 4.66546 39.9746 -0.0 -0.0 0.0 0.0 0.0 
3082.87091677 665.974 -1830.28598575 -17.8858826025 32.3285816217 15.8095154483 7.27561 -0.45389 -1.14273 7.27625 -0.38026 -1.16929 7.28296 -0.280112 -1.19723 7.28126 -0.465666 -1.13798 -12.7361 -3.9238 3.72949 -12.7542 -9.81181 2.41705 -0.0 0.0 -0.0 4.17043 15.3816 8.47336 -28.1857 -17.8701 63.3595 0.646401 -17.7556 0.100968 -60.6447 -5.36304 5.1208 7.75536 -21.9975 45.6027 -0.0 0.0 -0.0 6.42388 -3.12961 -12.4628 -24.6117 30.8712 -55.6188 0.601532 16.5932 -0.0877184 -28.7829 1.84468 -3.14435 -9.15895 -14.6384 66.3093 0.0 0.0 0.0 42.2006 -20.1496 2.13213 -25.4499 0.191286 3.86883 30.4013 7.2787 -3.93165 12.1943 -0.0 -0.0 -0.0 0.0 -0.0 14.3962 -4.49732 -5.59621 -48.5812 1.10086 -7.15481 39.6925 3.80973 4.88832 40.158 -0.0 -0.0 0.0 0.0 0.0 
3059.80760278 674.431 -1847.39128337 -17.732566902 34.7971748456 16.8014033821 7.04565 -0.309335 -1.41845 7.04674 -0.218458 -1.43525 7.05061 -0.0905037 -1.44895 7.04782 -0.31818 -1.41649 -13.0153 -4.22595 2.0505 -13.0588 -9.32336 0.695961 -0.0 0.0 -0.0 5.87634 11.7313 11.3502 -26.7192 -16.8175 62.4399 0.631586 -17.3734 0.096497 -58.3723 -5.08105 5.04763 7.2727 -21.0923 42.1859 -0.0 0.0 -0.0 5.68803 -4.836 -11.0702 -27.4713 29.3614 -57.0151 0.605695 16.7017 -0.0889109 -27.8158 1.75811 -3.05561 -8.73992 -9.76973 68.1613 0.0 0.0 0.0 41.035 -18.0365 1.94695 -28.0666 0.113251 4.2628 34.5354 5.22686 -4.3532 8.70208 -0.0 -0.0 -0.0 0.0 -0.0 18.9979 -5.63367 -5.63478 -53.628 1.55261 -7.78712 36.9359 3.93827 4.64284 37.8218 -0.0 -0.0 0.0 0.0 0.0 
3040.98308387 670.969 -1869.20276485 -17.2464503526 36.6663787792 17.2562549899 6.6849 -0.295789 -1.6639 6.68642 -0.189327 -1.67934 6.68992 -0.0292219 -1.68972 6.68605 -0.295678 -1.66391 -14.5673 -4.6681 1.02763 -14.6386 -9.53517 -0.545214 -0.0 0.0 -0.0 8.29974 5.33396 16.0033 -25.2556 -16.5142 61.7581 0.885259 -23.6787 0.185578 -54.258 -4.57853 4.88686 5.90716 -14.5763 35.5122 -0.0 0.0 -0.0 4.86205 -5.17869 -9.53598 -28.1983 28.7346 -58.4979 0.63768 17.5308 -0.0983247 -25.8138 1.58374 -2.86734 -7.49701 0.158598 61.6249 0.0 0.0 0.0 41.0539 -15.2079 2.71409 -31.8121 -0.0295969 4.81976 33.6818 3.61453 -4.27154 2.35996 -0.0 -0.0 -0.0 0.0 -0.0 21.4539 -5.85413 -5.63557 -57.3119 1.91682 -8.22268 32.8623 2.65927 4.23218 33.2763 -0.0 -0.0 0.0 0.0 0.0 
3012.26894018 678.248 -1884.90621272 -17.7794070542 41.3143898737 18.3544305789 6.89132 -0.37541 -1.62319 6.89275 -0.271376 -1.64378 6.8985 -0.120359 -1.66168 6.89484 -0.381245 -1.62183 -13.7959 -4.71802 0.993702 -13.8603 -9.60462 -0.528018 -0.0 0.0 -0.0 9.1014 2.50633 17.7088 -25.3493 -16.8943 61.8185 1.02358 -26.8867 0.244675 -52.7248 -4.39435 4.81777 5.46722 -12.293 33.3431 -0.0 0.0 -0.0 4.53078 -5.80523 -8.93905 -29.2739 28.4052 -58.5433 0.64019 17.5955 -0.0990821 -25.1533 1.52767 -2.80391 -6.9711 4.27249 58.3144 0.0 0.0 0.0 39.5589 -14.1176 3.00184 -33.0717 -0.0857939 5.00487 32.2306 1.6135 -4.13324 -0.216374 0.0 0.0 -0.0 0.0 -0.0 22.3866 -4.79448 -5.61355 -58.1722 2.00588 -8.321 29.7944 0.865484 3.89512 31.2214 -0.0 -0.0 0.0 0.0 0.0 
